<svg width="1112" height="268" viewBox="0 0 1112 268" fill="none" xmlns="http://www.w3.org/2000/svg">
<path d="M105.827 99.1016C102.791 73.9062 83.7211 59.4176 58.4725 59.4176C29.655 59.4176 7.65572 79.7656 7.65572 115.455C7.65572 151.037 29.2821 171.491 58.4725 171.491C86.4377 171.491 103.323 152.901 105.827 132.82L82.4959 132.713C80.312 144.379 71.15 151.09 58.8453 151.09C42.2793 151.09 31.04 138.786 31.04 115.455C31.04 92.7628 42.1195 79.8189 59.0051 79.8189C71.6294 79.8189 80.7381 87.1165 82.4959 99.1016H105.827ZM222.615 115.455C222.615 79.7656 200.456 59.4176 171.532 59.4176C142.448 59.4176 120.449 79.7656 120.449 115.455C120.449 150.984 142.448 171.491 171.532 171.491C200.456 171.491 222.615 151.143 222.615 115.455ZM199.231 115.455C199.231 138.572 188.258 151.09 171.532 151.09C154.753 151.09 143.833 138.572 143.833 115.455C143.833 92.3366 154.753 79.8189 171.532 79.8189C188.258 79.8189 199.231 92.3366 199.231 115.455ZM239.7 60.9091V170H262.072V98.7287H262.978L291.21 169.467H306.444L334.675 98.995H335.581V170H357.953V60.9091H329.509L299.466 134.205H298.188L268.145 60.9091H239.7ZM400.021 60.9091H376.956V170H400.021V60.9091ZM510.244 60.9091H487.286V129.517H486.327L439.239 60.9091H418.997V170H442.062V101.339H442.861L490.322 170H510.244V60.9091ZM601.637 96.1719H625.074C622.091 74.5987 603.075 59.4176 578.412 59.4176C549.595 59.4176 527.382 80.1918 527.382 115.561C527.382 150.078 548.156 171.491 578.892 171.491C606.431 171.491 626.086 154.073 626.086 125.362V111.619H580.436V128.984H603.874C603.554 142.514 594.339 151.09 578.998 151.09C561.686 151.09 550.767 138.146 550.767 115.348C550.767 92.6562 562.112 79.8189 578.785 79.8189C590.664 79.8189 598.707 85.9446 601.637 96.1719ZM737.308 92.2834H759.414C759.094 72.8409 743.114 59.4176 718.824 59.4176C694.907 59.4176 677.382 72.6278 677.489 92.4432C677.436 108.53 688.781 117.745 707.212 122.166L719.09 125.149C730.969 128.026 737.574 131.435 737.627 138.786C737.574 146.776 730.01 152.209 718.291 152.209C706.306 152.209 697.677 146.669 696.931 135.749H674.612C675.198 159.347 692.084 171.545 718.558 171.545C745.191 171.545 760.852 158.814 760.905 138.839C760.852 120.675 747.162 111.033 728.199 106.772L718.398 104.428C708.916 102.244 700.98 98.7287 701.139 90.8984C701.139 83.8672 707.372 78.7003 718.664 78.7003C729.691 78.7003 736.455 83.7074 737.308 92.2834ZM876.668 115.455C876.668 79.7656 854.509 59.4176 825.585 59.4176C796.501 59.4176 774.501 79.7656 774.501 115.455C774.501 150.984 796.501 171.491 825.585 171.491C854.509 171.491 876.668 151.143 876.668 115.455ZM853.283 115.455C853.283 138.572 842.31 151.09 825.585 151.09C808.805 151.09 797.886 138.572 797.886 115.455C797.886 92.3366 808.805 79.8189 825.585 79.8189C842.31 79.8189 853.283 92.3366 853.283 115.455ZM994.002 115.455C994.002 79.7656 971.843 59.4176 942.919 59.4176C913.835 59.4176 891.835 79.7656 891.835 115.455C891.835 150.984 913.835 171.491 942.919 171.491C971.843 171.491 994.002 151.143 994.002 115.455ZM970.617 115.455C970.617 138.572 959.644 151.09 942.919 151.09C926.139 151.09 915.22 138.572 915.22 115.455C915.22 92.3366 926.139 79.8189 942.919 79.8189C959.644 79.8189 970.617 92.3366 970.617 115.455ZM1102.33 60.9091H1079.38V129.517H1078.42L1031.33 60.9091H1011.09V170H1034.15V101.339H1034.95L1082.41 170H1102.33V60.9091Z" fill="black" fill-opacity="0.1"/>
<path d="M395 115H545V223C545 225.761 542.761 228 540 228H400C397.239 228 395 225.761 395 223V115Z" fill="#FFA740"/>
<path d="M566 115H716V223C716 225.761 713.761 228 711 228H571C568.239 228 566 225.761 566 223V115Z" fill="#FFA740"/>
<path d="M395 5C395 2.23858 397.239 0 400 0H540C542.761 0 545 2.23858 545 5V113H395V5Z" fill="#F09831"/>
<path d="M566 5C566 2.23858 568.239 0 571 0H711C713.761 0 716 2.23858 716 5V113H566V5Z" fill="#F09831"/>
<path d="M663.564 47.0909H637.548L605.141 67.6094V92.1548L635.119 73.3622H635.886V178H663.564V47.0909Z" fill="#212121"/>
<path d="M483.86 243.818V256.496C483.851 258.245 483.07 259.168 481.65 259.168C480.309 259.168 479.439 258.333 479.412 256.886H475.586C475.568 260.517 478.161 262.249 481.454 262.249C485.138 262.249 487.651 260.02 487.66 256.496V243.818H483.86ZM494.656 262.257C496.671 262.257 497.976 261.379 498.642 260.109H498.748V262H502.335V252.803C502.335 249.553 499.583 248.186 496.547 248.186C493.279 248.186 491.131 249.749 490.607 252.234L494.105 252.518C494.363 251.613 495.17 250.947 496.529 250.947C497.816 250.947 498.553 251.595 498.553 252.714V252.767C498.553 253.646 497.621 253.761 495.25 253.992C492.551 254.241 490.128 255.146 490.128 258.191C490.128 260.89 492.054 262.257 494.656 262.257ZM495.739 259.647C494.576 259.647 493.741 259.106 493.741 258.067C493.741 257.002 494.62 256.478 495.952 256.292C496.777 256.176 498.127 255.981 498.58 255.679V257.126C498.58 258.555 497.399 259.647 495.739 259.647ZM509.051 254.116C509.06 252.359 510.107 251.329 511.634 251.329C513.153 251.329 514.067 252.323 514.058 253.992V262H517.84V253.317C517.84 250.139 515.976 248.186 513.135 248.186C511.111 248.186 509.646 249.18 509.033 250.77H508.873V248.364H505.269V262H509.051V254.116ZM529.565 256.194C529.574 258.023 528.323 258.982 526.964 258.982C525.535 258.982 524.612 257.978 524.603 256.371V248.364H520.821V257.046C520.83 260.233 522.694 262.178 525.437 262.178C527.488 262.178 528.962 261.121 529.574 259.523H529.716V262H533.347V248.364H529.565V256.194ZM540.261 262.257C542.276 262.257 543.581 261.379 544.247 260.109H544.354V262H547.94V252.803C547.94 249.553 545.188 248.186 542.152 248.186C538.885 248.186 536.737 249.749 536.213 252.234L539.711 252.518C539.968 251.613 540.776 250.947 542.134 250.947C543.422 250.947 544.158 251.595 544.158 252.714V252.767C544.158 253.646 543.226 253.761 540.856 253.992C538.157 254.241 535.733 255.146 535.733 258.191C535.733 260.89 537.66 262.257 540.261 262.257ZM541.344 259.647C540.181 259.647 539.347 259.106 539.347 258.067C539.347 257.002 540.225 256.478 541.557 256.292C542.383 256.176 543.732 255.981 544.185 255.679V257.126C544.185 258.555 543.004 259.647 541.344 259.647ZM550.874 262H554.656V254.285C554.656 252.607 555.882 251.453 557.551 251.453C558.074 251.453 558.794 251.542 559.149 251.657V248.301C558.811 248.222 558.341 248.168 557.959 248.168C556.432 248.168 555.18 249.056 554.683 250.743H554.541V248.364H550.874V262ZM561.104 262H564.886V248.364H561.104V262ZM563.004 246.606C564.131 246.606 565.055 245.745 565.055 244.688C565.055 243.641 564.131 242.779 563.004 242.779C561.885 242.779 560.962 243.641 560.962 244.688C560.962 245.745 561.885 246.606 563.004 246.606ZM573.666 262H586.628V258.857H578.993V258.733L581.647 256.132C585.385 252.723 586.388 251.018 586.388 248.95C586.388 245.798 583.813 243.57 579.916 243.57C576.099 243.57 573.48 245.851 573.489 249.42H577.137C577.128 247.68 578.229 246.615 579.889 246.615C581.487 246.615 582.677 247.609 582.677 249.207C582.677 250.654 581.789 251.648 580.138 253.238L573.666 259.23V262ZM596.542 262.4C601.114 262.4 603.875 258.919 603.884 252.927C603.893 246.979 601.096 243.57 596.542 243.57C591.979 243.57 589.209 246.97 589.2 252.927C589.182 258.902 591.961 262.391 596.542 262.4ZM596.542 259.212C594.456 259.212 593.106 257.117 593.115 252.927C593.124 248.799 594.465 246.721 596.542 246.721C598.611 246.721 599.96 248.799 599.96 252.927C599.969 257.117 598.619 259.212 596.542 259.212ZM606.625 262H619.587V258.857H611.952V258.733L614.606 256.132C618.344 252.723 619.347 251.018 619.347 248.95C619.347 245.798 616.772 243.57 612.875 243.57C609.058 243.57 606.439 245.851 606.448 249.42H610.096C610.087 247.68 611.188 246.615 612.848 246.615C614.446 246.615 615.636 247.609 615.636 249.207C615.636 250.654 614.748 251.648 613.097 253.238L606.625 259.23V262ZM622.372 262H635.334V258.857H627.699V258.733L630.353 256.132C634.091 252.723 635.094 251.018 635.094 248.95C635.094 245.798 632.52 243.57 628.622 243.57C624.805 243.57 622.186 245.851 622.195 249.42H625.843C625.835 247.68 626.935 246.615 628.596 246.615C630.194 246.615 631.383 247.609 631.383 249.207C631.383 250.654 630.495 251.648 628.844 253.238L622.372 259.23V262Z" fill="#212121"/>
<path d="M469.939 180.876C502.858 180.876 522.737 155.82 522.801 112.673C522.865 69.8466 502.73 45.3011 469.939 45.3011C437.084 45.3011 417.141 69.7827 417.077 112.673C416.949 155.692 436.956 180.812 469.939 180.876ZM469.939 157.929C454.918 157.929 445.202 142.844 445.266 112.673C445.33 82.9503 454.982 67.9929 469.939 67.9929C484.832 67.9929 494.548 82.9503 494.548 112.673C494.612 142.844 484.896 157.929 469.939 157.929Z" fill="#212121"/>
<g filter="url(#filter0_d)">
<rect x="395" y="113" width="150" height="2" fill="#D2811A"/>
</g>
<g filter="url(#filter1_d)">
<rect x="566" y="113" width="150" height="2" fill="#D2811A"/>
</g>
<defs>
<filter id="filter0_d" x="390" y="110" width="160" height="12" filterUnits="userSpaceOnUse" color-interpolation-filters="sRGB">
<feFlood flood-opacity="0" result="BackgroundImageFix"/>
<feColorMatrix in="SourceAlpha" type="matrix" values="0 0 0 0 0 0 0 0 0 0 0 0 0 0 0 0 0 0 127 0" result="hardAlpha"/>
<feOffset dy="2"/>
<feGaussianBlur stdDeviation="2.5"/>
<feComposite in2="hardAlpha" operator="out"/>
<feColorMatrix type="matrix" values="0 0 0 0 0 0 0 0 0 0 0 0 0 0 0 0 0 0 0.25 0"/>
<feBlend mode="normal" in2="BackgroundImageFix" result="effect1_dropShadow"/>
<feBlend mode="normal" in="SourceGraphic" in2="effect1_dropShadow" result="shape"/>
</filter>
<filter id="filter1_d" x="560" y="109" width="162" height="14" filterUnits="userSpaceOnUse" color-interpolation-filters="sRGB">
<feFlood flood-opacity="0" result="BackgroundImageFix"/>
<feColorMatrix in="SourceAlpha" type="matrix" values="0 0 0 0 0 0 0 0 0 0 0 0 0 0 0 0 0 0 127 0" result="hardAlpha"/>
<feOffset dy="2"/>
<feGaussianBlur stdDeviation="3"/>
<feComposite in2="hardAlpha" operator="out"/>
<feColorMatrix type="matrix" values="0 0 0 0 0 0 0 0 0 0 0 0 0 0 0 0 0 0 0.25 0"/>
<feBlend mode="normal" in2="BackgroundImageFix" result="effect1_dropShadow"/>
<feBlend mode="normal" in="SourceGraphic" in2="effect1_dropShadow" result="shape"/>
</filter>
</defs>
</svg>
