<svg width="332" height="268" viewBox="0 0 332 268" fill="none" xmlns="http://www.w3.org/2000/svg">
<path d="M5 115H155V223C155 225.761 152.761 228 150 228H10C7.23858 228 5 225.761 5 223V115Z" fill="#FFA740"/>
<path d="M176 115H326V223C326 225.761 323.761 228 321 228H181C178.239 228 176 225.761 176 223V115Z" fill="#FFA740"/>
<path d="M5 5C5 2.23858 7.23858 0 10 0H150C152.761 0 155 2.23858 155 5V113H5V5Z" fill="#F09831"/>
<path d="M176 5C176 2.23858 178.239 0 181 0H321C323.761 0 326 2.23858 326 5V113H176V5Z" fill="#F09831"/>
<path d="M273.564 47.0909H247.548L215.141 67.6094V92.1548L245.119 73.3622H245.886V178H273.564V47.0909Z" fill="#212121"/>
<path d="M93.8601 243.818V256.496C93.8512 258.245 93.07 259.168 91.6495 259.168C90.3089 259.168 89.4389 258.333 89.4123 256.886H85.5859C85.5682 260.517 88.1605 262.249 91.4542 262.249C95.1385 262.249 97.6509 260.02 97.6598 256.496V243.818H93.8601ZM104.656 262.257C106.671 262.257 107.976 261.379 108.642 260.109H108.748V262H112.335V252.803C112.335 249.553 109.583 248.186 106.547 248.186C103.279 248.186 101.131 249.749 100.607 252.234L104.105 252.518C104.363 251.613 105.17 250.947 106.529 250.947C107.816 250.947 108.553 251.595 108.553 252.714V252.767C108.553 253.646 107.621 253.761 105.25 253.992C102.551 254.241 100.128 255.146 100.128 258.191C100.128 260.89 102.054 262.257 104.656 262.257ZM105.739 259.647C104.576 259.647 103.741 259.106 103.741 258.067C103.741 257.002 104.62 256.478 105.952 256.292C106.777 256.176 108.127 255.981 108.58 255.679V257.126C108.58 258.555 107.399 259.647 105.739 259.647ZM119.051 254.116C119.06 252.359 120.107 251.329 121.634 251.329C123.153 251.329 124.067 252.323 124.058 253.992V262H127.84V253.317C127.84 250.139 125.976 248.186 123.135 248.186C121.111 248.186 119.646 249.18 119.033 250.77H118.873V248.364H115.269V262H119.051V254.116ZM139.565 256.194C139.574 258.023 138.323 258.982 136.964 258.982C135.535 258.982 134.612 257.978 134.603 256.371V248.364H130.821V257.046C130.83 260.233 132.694 262.178 135.437 262.178C137.488 262.178 138.962 261.121 139.574 259.523H139.716V262H143.347V248.364H139.565V256.194ZM150.261 262.257C152.276 262.257 153.581 261.379 154.247 260.109H154.354V262H157.94V252.803C157.94 249.553 155.188 248.186 152.152 248.186C148.885 248.186 146.737 249.749 146.213 252.234L149.711 252.518C149.968 251.613 150.776 250.947 152.134 250.947C153.422 250.947 154.158 251.595 154.158 252.714V252.767C154.158 253.646 153.226 253.761 150.856 253.992C148.157 254.241 145.733 255.146 145.733 258.191C145.733 260.89 147.66 262.257 150.261 262.257ZM151.344 259.647C150.181 259.647 149.347 259.106 149.347 258.067C149.347 257.002 150.225 256.478 151.557 256.292C152.383 256.176 153.732 255.981 154.185 255.679V257.126C154.185 258.555 153.004 259.647 151.344 259.647ZM160.874 262H164.656V254.285C164.656 252.607 165.882 251.453 167.551 251.453C168.074 251.453 168.794 251.542 169.149 251.657V248.301C168.811 248.222 168.341 248.168 167.959 248.168C166.432 248.168 165.18 249.056 164.683 250.743H164.541V248.364H160.874V262ZM171.104 262H174.886V248.364H171.104V262ZM173.004 246.606C174.131 246.606 175.055 245.745 175.055 244.688C175.055 243.641 174.131 242.779 173.004 242.779C171.885 242.779 170.962 243.641 170.962 244.688C170.962 245.745 171.885 246.606 173.004 246.606ZM183.666 262H196.628V258.857H188.993V258.733L191.647 256.132C195.385 252.723 196.388 251.018 196.388 248.95C196.388 245.798 193.813 243.57 189.916 243.57C186.099 243.57 183.48 245.851 183.489 249.42H187.137C187.128 247.68 188.229 246.615 189.889 246.615C191.487 246.615 192.677 247.609 192.677 249.207C192.677 250.654 191.789 251.648 190.138 253.238L183.666 259.23V262ZM206.542 262.4C211.114 262.4 213.875 258.919 213.884 252.927C213.893 246.979 211.096 243.57 206.542 243.57C201.979 243.57 199.209 246.97 199.2 252.927C199.182 258.902 201.961 262.391 206.542 262.4ZM206.542 259.212C204.456 259.212 203.106 257.117 203.115 252.927C203.124 248.799 204.465 246.721 206.542 246.721C208.611 246.721 209.96 248.799 209.96 252.927C209.969 257.117 208.619 259.212 206.542 259.212ZM216.625 262H229.587V258.857H221.952V258.733L224.606 256.132C228.344 252.723 229.347 251.018 229.347 248.95C229.347 245.798 226.772 243.57 222.875 243.57C219.058 243.57 216.439 245.851 216.448 249.42H220.096C220.087 247.68 221.188 246.615 222.848 246.615C224.446 246.615 225.636 247.609 225.636 249.207C225.636 250.654 224.748 251.648 223.097 253.238L216.625 259.23V262ZM232.372 262H245.334V258.857H237.699V258.733L240.353 256.132C244.091 252.723 245.094 251.018 245.094 248.95C245.094 245.798 242.52 243.57 238.622 243.57C234.805 243.57 232.186 245.851 232.195 249.42H235.843C235.835 247.68 236.935 246.615 238.596 246.615C240.194 246.615 241.383 247.609 241.383 249.207C241.383 250.654 240.495 251.648 238.844 253.238L232.372 259.23V262Z" fill="#212121"/>
<path d="M79.9389 180.876C112.858 180.876 132.737 155.82 132.801 112.673C132.865 69.8466 112.73 45.3011 79.9389 45.3011C47.0838 45.3011 27.1406 69.7827 27.0767 112.673C26.9489 155.692 46.956 180.812 79.9389 180.876ZM79.9389 157.929C64.9176 157.929 55.2017 142.844 55.2656 112.673C55.3295 82.9503 64.9815 67.9929 79.9389 67.9929C94.8324 67.9929 104.548 82.9503 104.548 112.673C104.612 142.844 94.8963 157.929 79.9389 157.929Z" fill="#212121"/>
<g filter="url(#filter0_d)">
<rect x="5" y="113" width="150" height="2" fill="#D2811A"/>
</g>
<g filter="url(#filter1_d)">
<rect x="176" y="113" width="150" height="2" fill="#D2811A"/>
</g>
<defs>
<filter id="filter0_d" x="0" y="110" width="160" height="12" filterUnits="userSpaceOnUse" color-interpolation-filters="sRGB">
<feFlood flood-opacity="0" result="BackgroundImageFix"/>
<feColorMatrix in="SourceAlpha" type="matrix" values="0 0 0 0 0 0 0 0 0 0 0 0 0 0 0 0 0 0 127 0" result="hardAlpha"/>
<feOffset dy="2"/>
<feGaussianBlur stdDeviation="2.5"/>
<feComposite in2="hardAlpha" operator="out"/>
<feColorMatrix type="matrix" values="0 0 0 0 0 0 0 0 0 0 0 0 0 0 0 0 0 0 0.25 0"/>
<feBlend mode="normal" in2="BackgroundImageFix" result="effect1_dropShadow"/>
<feBlend mode="normal" in="SourceGraphic" in2="effect1_dropShadow" result="shape"/>
</filter>
<filter id="filter1_d" x="170" y="109" width="162" height="14" filterUnits="userSpaceOnUse" color-interpolation-filters="sRGB">
<feFlood flood-opacity="0" result="BackgroundImageFix"/>
<feColorMatrix in="SourceAlpha" type="matrix" values="0 0 0 0 0 0 0 0 0 0 0 0 0 0 0 0 0 0 127 0" result="hardAlpha"/>
<feOffset dy="2"/>
<feGaussianBlur stdDeviation="3"/>
<feComposite in2="hardAlpha" operator="out"/>
<feColorMatrix type="matrix" values="0 0 0 0 0 0 0 0 0 0 0 0 0 0 0 0 0 0 0.25 0"/>
<feBlend mode="normal" in2="BackgroundImageFix" result="effect1_dropShadow"/>
<feBlend mode="normal" in="SourceGraphic" in2="effect1_dropShadow" result="shape"/>
</filter>
</defs>
</svg>
